<svg width="24" height="25" viewBox="0 0 24 25" fill="none" xmlns="http://www.w3.org/2000/svg">
<g id="Icon / Instagram">
<path id="Vector" fill-rule="evenodd" clip-rule="evenodd" d="M16 3.23047H8C5.23858 3.23047 3 5.46905 3 8.23047V16.2305C3 18.9919 5.23858 21.2305 8 21.2305H16C18.7614 21.2305 21 18.9919 21 16.2305V8.23047C21 5.46905 18.7614 3.23047 16 3.23047ZM19.25 16.2305C19.2445 18.0231 17.7926 19.475 16 19.4805H8C6.20735 19.475 4.75549 18.0231 4.75 16.2305V8.23047C4.75549 6.43782 6.20735 4.98596 8 4.98047H16C17.7926 4.98596 19.2445 6.43782 19.25 8.23047V16.2305ZM16.75 8.48047C17.3023 8.48047 17.75 8.03275 17.75 7.48047C17.75 6.92819 17.3023 6.48047 16.75 6.48047C16.1977 6.48047 15.75 6.92819 15.75 7.48047C15.75 8.03275 16.1977 8.48047 16.75 8.48047ZM12 7.73047C9.51472 7.73047 7.5 9.74519 7.5 12.2305C7.5 14.7158 9.51472 16.7305 12 16.7305C14.4853 16.7305 16.5 14.7158 16.5 12.2305C16.5027 11.0362 16.0294 9.89004 15.1849 9.04555C14.3404 8.20106 13.1943 7.72781 12 7.73047ZM9.25 12.2305C9.25 13.7493 10.4812 14.9805 12 14.9805C13.5188 14.9805 14.75 13.7493 14.75 12.2305C14.75 10.7117 13.5188 9.48047 12 9.48047C10.4812 9.48047 9.25 10.7117 9.25 12.2305Z" fill="#D9EFDE"/>
</g>
</svg>
